# xmcd CD database file
#
# Track frame offsets:
#	150
#	17871
#	40042
#	58617
#	77692
#	100141
#	113139
#	128144
#	144340
#	157512
#	179190
#
# Disc length: 2645 seconds
#
# Revision: 0
# Processed by: cddbd v1.4PL0 Copyright (c) Steve Scherf et al.
# Submitted via: CDex 1.50
#
DISCID=860a530b
DTITLE=The Will DerryBerry Band - Live August 31, 1999
DYEAR=1999
DGENRE=Blues
TTITLE0=alright
TTITLE1=before you accuse me
TTITLE2=and you will be free
TTITLE3=got no other
TTITLE4=i can count on you
TTITLE5=i saw an angel
TTITLE6=no doubt
TTITLE7=out of my heart
TTITLE8=friend
TTITLE9=hear my cry
TTITLE10=this train
EXTD=YEAR: 1999
EXTT0=
EXTT1=
EXTT2=
EXTT3=
EXTT4=
EXTT5=
EXTT6=
EXTT7=
EXTT8=
EXTT9=
EXTT10=
PLAYORDER=
